<?xml version="1.0" standalone="no"?><!DOCTYPE svg PUBLIC "-//W3C//DTD SVG 1.1//EN" "http://www.w3.org/Graphics/SVG/1.1/DTD/svg11.dtd"><svg class="icon" width="200px" height="200.00px" viewBox="0 0 1024 1024" version="1.1" xmlns="http://www.w3.org/2000/svg"><path fill="#333333" d="M639.68 194.624c-164.992 0-298.688 133.632-298.688 298.56 0 165.056 133.632 298.88 298.688 298.88 164.8 0 298.56-133.888 298.56-298.88 0-110.528-60.032-206.912-149.12-258.624C745.216 209.152 694.08 194.624 639.68 194.624zM639.68 739.648c-136.064 0-246.464-110.272-246.464-246.464 0-136.128 110.336-246.528 246.464-246.528s246.4 110.336 246.4 246.528C886.208 629.376 775.808 739.648 639.68 739.648zM985.664 768.64c14.208 13.952 14.208 36.544 0 50.432l0 0c-14.016 13.824-36.48 13.824-50.368 0l-52.48-52.8c-14.08-13.824-14.08-36.352 0-50.176l0 0c13.888-13.952 36.48-13.952 50.432 0L985.664 768.64zM344.256 286.912 344.256 283.392 27.712 283.392l0 54.4 256.256 0C301.056 316.992 321.344 299.968 344.256 286.912zM257.344 475.328 27.712 475.328l0 54.4 230.016 0C256.64 520.448 254.912 511.552 254.912 501.888 254.784 492.8 256.64 484.16 257.344 475.328zM275.84 663.616 27.712 663.616l0 54.464 308.672 0 0-1.216C313.28 703.552 292.928 685.696 275.84 663.616z" /></svg>